<svg preserveAspectRatio="none" width="100%" height="100%" overflow="visible" style="display: block;" viewBox="0 0 21.2 21.2001" fill="none" xmlns="http://www.w3.org/2000/svg">
<path id="Vector" d="M8.61074 0.638184C10.3826 0.0221019 12.0277 0.344498 13.2543 0.844239C14.56 1.37629 15.4151 2.11769 15.4945 2.18799L17.1654 3.66748H17.1664C17.3602 3.8394 17.4715 4.07923 17.4799 4.33838C17.4869 4.55194 17.4212 4.75768 17.2992 4.93018L17.9857 5.53662C18.1442 5.40091 18.3433 5.31625 18.5531 5.30127C18.8077 5.28271 19.054 5.3658 19.2436 5.53369L20.7143 6.83643C20.7963 6.90911 20.8548 7.00371 20.8822 7.10791L20.8988 7.21533L20.8949 7.32373C20.8801 7.43071 20.834 7.532 20.7611 7.61377L18.1635 10.5269C18.0543 10.6493 17.9022 10.7104 17.7514 10.7104C17.6219 10.7104 17.4904 10.6655 17.3852 10.5718V10.5708L15.9154 9.27002C15.7218 9.09848 15.6094 8.85845 15.601 8.59912C15.5942 8.39238 15.6545 8.19203 15.7689 8.02295L15.0883 7.42139L13.9418 8.70752C13.9629 8.85408 13.9269 9.01047 13.8178 9.13721L4.38418 20.0933C3.97584 20.5675 3.40421 20.8519 2.77871 20.894C2.72475 20.8978 2.67115 20.8999 2.61856 20.8999C2.12157 20.8998 1.6449 20.7429 1.24649 20.4497L1.08047 20.3159C0.611333 19.901 0.33482 19.3264 0.303126 18.7017C0.2718 18.0773 0.488782 17.478 0.913477 17.0181L10.723 6.39502C10.843 6.26463 11.0048 6.20966 11.1615 6.22119L12.558 4.65674C12.6775 4.43752 12.6842 4.25412 12.6049 4.06592C12.5081 3.83618 12.2826 3.58865 11.9398 3.3374C11.6024 3.09006 11.179 2.85897 10.7289 2.65283C10.0537 2.34361 9.33774 2.09977 8.80215 1.94287L8.33535 1.81592C8.10468 1.75942 7.93625 1.56142 7.91738 1.32471C7.89849 1.08661 8.03601 0.865189 8.2543 0.773926L8.61074 0.638184ZM1.72402 17.7632C1.50032 18.0056 1.38719 18.3186 1.40371 18.647C1.42032 18.975 1.56442 19.2744 1.81094 19.4927C2.05724 19.7104 2.37317 19.8178 2.70449 19.7974L2.82656 19.7827C3.1079 19.7356 3.36025 19.5947 3.54824 19.3765L12.6273 8.83057L11.1654 7.53662L1.72402 17.7632ZM10.6234 1.40967C10.9889 1.5566 11.37 1.72677 11.7338 1.92041C12.5287 2.34352 13.3132 2.91241 13.6195 3.63916C13.8477 4.18045 13.7946 4.73362 13.4848 5.25537C13.4654 5.28811 13.444 5.31583 13.4242 5.33838L13.4223 5.34033L12.0648 6.86084L13.2084 7.87451L14.3529 6.59229C14.7019 6.2008 15.3079 6.14505 15.7055 6.49756L16.6078 7.29639H16.6088C16.8026 7.46828 16.9138 7.70815 16.9223 7.96729L16.9203 8.06104C16.9093 8.23407 16.8511 8.39919 16.7543 8.54248L17.7045 9.38428L19.5707 7.29248L18.6215 6.45264C18.4672 6.589 18.2732 6.67017 18.0648 6.68506L18.0609 6.68604C17.8043 6.70112 17.5465 6.61858 17.35 6.44482L16.4594 5.65576C16.2894 5.50552 16.1824 5.30336 16.1527 5.08154L16.1449 4.98486C16.1379 4.77122 16.2026 4.56463 16.3246 4.39209L14.7631 3.01123V3.01025C14.7632 3.01035 14.1305 2.46101 13.1352 2.00537C12.4351 1.68499 11.5691 1.41781 10.6234 1.40967ZM18.6225 6.27881L18.6303 6.39795H18.6313L18.6234 6.27881H18.6225ZM18.6107 6.09912L18.6195 6.23486V6.23389L18.6107 6.09912Z" fill="var(--fill-0, #111827)" stroke="var(--stroke-0, #111827)" stroke-width="0.6" stroke-linejoin="round"/>
</svg>
